<?xml version="1.0" standalone="no"?>
<!DOCTYPE svg PUBLIC "-//W3C//DTD SVG 20010904//EN"
 "http://www.w3.org/TR/2001/REC-SVG-20010904/DTD/svg10.dtd">
<svg version="1.0" xmlns="http://www.w3.org/2000/svg"
 width="512.000000pt" height="512.000000pt" viewBox="0 0 512.000000 512.000000"
 preserveAspectRatio="xMidYMid meet">

<g transform="translate(0.000000,512.000000) scale(0.100000,-0.100000)"
fill="#000000" stroke="none">
<path d="M1801 5104 c-83 -22 -165 -71 -224 -133 -99 -104 -137 -210 -137
-383 l0 -107 -509 -3 c-497 -3 -510 -4 -537 -24 -53 -39 -69 -71 -69 -134 0
-63 16 -95 69 -134 l27 -21 2139 0 2139 0 27 21 c53 39 69 71 69 134 0 63 -16
95 -69 134 -27 20 -40 21 -537 24 l-509 3 0 107 c0 173 -38 279 -137 383 -61
64 -141 111 -228 134 -85 22 -1431 21 -1514 -1z m1485 -330 c60 -44 69 -67 72
-185 l4 -109 -801 0 -801 0 0 94 c0 102 9 137 43 175 48 52 32 51 769 48 676
-2 687 -2 714 -23z"/>
<path d="M575 3826 c-41 -18 -83 -69 -90 -109 -7 -36 129 -3120 144 -3270 7
-78 16 -113 44 -170 62 -132 171 -223 306 -259 61 -16 181 -17 1581 -17 1400
0 1520 1 1581 17 135 36 244 127 306 259 28 57 37 92 44 170 16 153 151 3243
144 3275 -9 39 -52 88 -92 104 -48 20 -3923 20 -3968 0z m3735 -353 c-1 -27
-31 -721 -69 -1544 -66 -1466 -68 -1497 -90 -1532 -12 -21 -40 -44 -65 -56
-42 -21 -46 -21 -1526 -21 -1480 0 -1484 0 -1526 21 -59 28 -84 72 -90 156 -6
77 -134 2944 -134 2992 l0 31 1750 0 1750 0 0 -47z"/>
<path d="M1590 3033 c-37 -14 -74 -50 -91 -88 -18 -41 -18 -59 21 -953 31
-715 42 -917 54 -939 62 -121 224 -122 283 -3 l22 45 -39 913 c-42 966 -40
941 -92 989 -40 37 -111 53 -158 36z"/>
<path d="M2495 3026 c-41 -18 -83 -69 -90 -109 -3 -18 -4 -442 -3 -944 3 -903
3 -912 24 -939 39 -53 71 -69 134 -69 63 0 95 16 134 69 21 27 21 34 21 966 0
932 0 939 -21 966 -11 15 -32 37 -46 47 -33 25 -113 32 -153 13z"/>
<path d="M3420 3029 c-33 -13 -68 -47 -86 -81 -11 -21 -23 -237 -54 -939 -38
-895 -39 -914 -21 -954 54 -123 224 -125 287 -4 12 23 22 211 54 941 39 894
39 913 21 953 -10 23 -33 52 -51 65 -37 26 -111 36 -150 19z"/>
</g>
</svg>
